<mxfile host="app.diagrams.net" modified="2023-10-19T06:48:53.297Z" agent="Mozilla/5.0 (X11; Linux x86_64) AppleWebKit/537.36 (KHTML, like Gecko) Chrome/118.0.0.0 Safari/537.36 Edg/118.0.2088.46" version="21.7.2" etag="R376IBgbda6af47tvdX7" type="github">
  <diagram name="Page-1" id="W06Nm9HMvpwDF0eSv0t2">
    <mxGraphModel>
      <root>
        <mxCell id="0" />
        <mxCell id="1" parent="0" />
      </root>
    </mxGraphModel>
  </diagram>
</mxfile>
